# Blender v2.79 (sub 0) OBJ File: ''
# www.blender.org
o ArrowMesh
v 0.774784 -0.050000 0.972373
v 0.774785 0.050000 0.972373
v 0.725522 0.050000 1.036600
v 0.725523 -0.050000 1.036600
v 0.000000 -0.050000 -0.223054
v 0.000000 0.050000 -0.223054
v 0.000000 0.050000 0.223055
v 0.000000 -0.050000 0.223055
v -0.774785 -0.050000 0.972373
v -0.725523 -0.050000 1.036600
v -0.725523 0.050000 1.036600
v -0.774785 0.050000 0.972373
vn 0.7935 -0.0000 0.6086
vn 0.8392 -0.0000 -0.5439
vn -0.7463 -0.0000 0.6656
vn 0.0000 1.0000 0.0000
vn -0.0000 -1.0000 -0.0000
vn -0.7935 0.0000 0.6086
vn -0.8392 0.0000 -0.5439
vn 0.7463 -0.0000 0.6656
s 1
f 1//1 2//1 3//1 4//1
f 2//2 1//2 5//2 6//2
f 4//3 3//3 7//3 8//3
f 2//4 6//4 7//4 3//4
f 1//5 4//5 8//5 5//5
f 9//6 10//6 11//6 12//6
f 12//7 6//7 5//7 9//7
f 10//8 8//8 7//8 11//8
f 12//4 11//4 7//4 6//4
f 9//5 5//5 8//5 10//5
