# Blender v2.79 (sub 0) OBJ File: 'CircleDirection.blend'
# www.blender.org
o Circle_Circle.002
v 0.000000 0.000000 -1.000000
v -0.866025 0.000000 -0.500000
v -0.951057 0.000000 -0.309017
v -0.994522 0.000000 -0.104528
v -0.994522 0.000000 0.104529
v -0.951056 0.000000 0.309017
v -0.866025 0.000000 0.500000
v 0.000000 0.000000 1.000000
v 0.207912 0.000000 0.978148
v 0.406737 0.000000 0.913545
v 0.587785 0.000000 0.809017
v 0.743145 0.000000 0.669131
v 0.866025 0.000000 0.500000
v 0.866026 0.000000 -0.499999
v 0.743146 0.000000 -0.669130
v 0.587786 0.000000 -0.809016
v 0.406738 0.000000 -0.913545
v 0.207914 0.000000 -0.978147
v 0.000000 0.200000 -1.000000
v -0.866025 0.200000 -0.500000
v -0.951057 0.200000 -0.309017
v -0.994522 0.200000 -0.104528
v -0.994522 0.200000 0.104529
v -0.951056 0.200000 0.309017
v -0.866025 0.200000 0.500000
v 0.000000 0.200000 1.000000
v 0.207912 0.200000 0.978148
v 0.406737 0.200000 0.913545
v 0.587785 0.200000 0.809017
v 0.743145 0.200000 0.669131
v 0.866025 0.200000 0.500000
v 0.866026 0.200000 -0.499999
v 0.743146 0.200000 -0.669130
v 0.587786 0.200000 -0.809016
v 0.406738 0.200000 -0.913545
v 0.207914 0.200000 -0.978147
v -0.760845 0.000000 -0.247214
v -0.692820 0.000000 -0.400000
v -0.795617 0.000000 -0.083623
v -0.795617 0.000000 0.083623
v -0.760845 0.000000 0.247214
v -0.692820 0.000000 0.400000
v 0.166330 0.000000 0.782518
v 0.000000 0.000000 0.800000
v 0.325389 0.000000 0.730836
v 0.470228 0.000000 0.647214
v 0.594516 0.000000 0.535304
v 0.692820 0.000000 0.400000
v 0.594517 0.000000 -0.535304
v 0.692821 0.000000 -0.399999
v 0.470229 0.000000 -0.647213
v 0.325391 0.000000 -0.730836
v 0.166331 0.000000 -0.782518
v 0.000000 0.000000 -0.800000
v -0.760845 0.200000 -0.247214
v -0.692820 0.200000 -0.400000
v -0.795617 0.200000 -0.083623
v -0.795617 0.200000 0.083623
v -0.760845 0.200000 0.247214
v -0.692820 0.200000 0.400000
v 0.166330 0.200000 0.782518
v 0.000000 0.200000 0.800000
v 0.325389 0.200000 0.730836
v 0.470228 0.200000 0.647214
v 0.594516 0.200000 0.535304
v 0.692820 0.200000 0.400000
v 0.594517 0.200000 -0.535304
v 0.692821 0.200000 -0.399999
v 0.470229 0.200000 -0.647213
v 0.325391 0.200000 -0.730836
v 0.166331 0.200000 -0.782518
v 0.000000 0.200000 -0.800000
v 0.000000 0.200000 1.100000
v 0.000000 0.000000 1.100000
v 0.000000 0.200000 0.700000
v 0.000000 0.000000 0.700000
v -0.200000 0.200000 0.900000
v -0.200000 0.000000 0.900000
v -0.952628 0.200000 -0.550000
v -0.952628 0.000000 -0.550000
v -0.606218 0.200000 -0.350000
v -0.606218 0.000000 -0.350000
v -0.679423 0.200000 -0.623205
v -0.679423 0.000000 -0.623205
v 0.952628 0.200000 -0.549999
v 0.952628 0.000000 -0.549999
v 0.606218 0.000000 -0.349999
v 0.606218 0.200000 -0.349999
v 0.879423 0.200000 -0.276794
v 0.879423 0.000000 -0.276794
v 0.000000 0.000000 -1.100000
v 0.000000 0.200000 -1.100000
v 0.000000 0.000000 -0.700000
v 0.000000 0.200000 -0.700000
v -0.200000 0.000000 -0.900000
v -0.200000 0.200000 -0.900000
v -0.952628 0.000000 0.550000
v -0.952628 0.200000 0.550000
v -0.606218 0.000000 0.350000
v -0.606218 0.200000 0.350000
v -0.679423 0.000000 0.623205
v 0.952628 0.000000 0.550000
v -0.679423 0.200000 0.623205
v 0.952628 0.200000 0.550000
v 0.606218 0.000000 0.350000
v 0.606218 0.200000 0.350000
v 0.879423 0.000000 0.276795
v 0.879423 0.200000 0.276795
vn 0.3090 0.0000 -0.9511
vn 0.3090 0.0000 0.9511
vn 0.1045 0.0000 -0.9945
vn 0.5000 0.0000 0.8660
vn -0.9135 0.0000 -0.4067
vn 0.6691 0.0000 0.7431
vn -0.9781 0.0000 -0.2079
vn 0.8090 0.0000 0.5878
vn -1.0000 0.0000 0.0000
vn 0.8090 0.0000 -0.5878
vn -0.9781 0.0000 0.2079
vn 0.6691 0.0000 -0.7431
vn -0.9135 0.0000 0.4067
vn 0.5000 0.0000 -0.8660
vn 0.1045 0.0000 0.9945
vn -0.3090 0.0000 0.9511
vn -0.3090 0.0000 -0.9511
vn -0.1045 0.0000 0.9945
vn -0.5000 0.0000 -0.8660
vn 0.9135 0.0000 0.4067
vn -0.6691 0.0000 -0.7431
vn 0.9781 0.0000 0.2079
vn -0.8090 0.0000 -0.5878
vn 1.0000 0.0000 0.0000
vn -0.8090 0.0000 0.5878
vn 0.9781 0.0000 -0.2079
vn -0.6691 0.0000 0.7431
vn 0.9135 0.0000 -0.4067
vn -0.5000 0.0000 0.8660
vn -0.1045 0.0000 -0.9945
vn 0.0000 1.0000 -0.0000
vn 0.0000 -1.0000 0.0000
vn 0.0000 0.0000 1.0000
vn 0.0000 0.9950 0.0995
vn -0.7071 0.0000 0.7071
vn -0.7071 0.0000 -0.7071
vn -0.2588 0.0000 -0.9659
vn 0.9659 0.0000 -0.2588
vn 0.9659 0.0000 0.2588
vn -0.2588 0.0000 0.9659
s off
f 17//1 18//1 36//1 35//1
f 9//2 10//2 28//2 27//2
f 18//3 1//3 19//3 36//3
f 10//4 11//4 29//4 28//4
f 2//5 3//5 21//5 20//5
f 11//6 12//6 30//6 29//6
f 3//7 4//7 22//7 21//7
f 12//8 13//8 31//8 30//8
f 4//9 5//9 23//9 22//9
f 14//10 15//10 33//10 32//10
f 5//11 6//11 24//11 23//11
f 15//12 16//12 34//12 33//12
f 6//13 7//13 25//13 24//13
f 16//14 17//14 35//14 34//14
f 8//15 9//15 27//15 26//15
f 52//16 70//16 71//16 53//16
f 43//17 61//17 63//17 45//17
f 53//18 71//18 72//18 54//18
f 45//19 63//19 64//19 46//19
f 38//20 56//20 55//20 37//20
f 46//21 64//21 65//21 47//21
f 37//22 55//22 57//22 39//22
f 47//23 65//23 66//23 48//23
f 39//24 57//24 58//24 40//24
f 50//25 68//25 67//25 49//25
f 40//26 58//26 59//26 41//26
f 49//27 67//27 69//27 51//27
f 41//28 59//28 60//28 42//28
f 51//29 69//29 70//29 52//29
f 44//30 62//30 61//30 43//30
f 28//31 63//31 61//31 27//31
f 11//32 46//32 47//32 12//32
f 29//31 64//31 63//31 28//31
f 12//32 47//32 48//32 13//32
f 56//33 81//33 79//33 20//33
f 30//31 65//31 64//31 29//31
f 14//32 50//32 49//32 15//32
f 31//31 66//31 65//31 30//31
f 15//32 49//32 51//32 16//32
f 33//31 67//31 68//31 32//31
f 16//32 51//32 52//32 17//32
f 34//31 69//31 67//31 33//31
f 17//32 52//32 53//32 18//32
f 66//33 31//33 104//33 106//33
f 2//32 38//32 37//32 3//32
f 35//31 70//31 69//31 34//31
f 18//32 53//32 54//32 1//32
f 3//32 37//32 39//32 4//32
f 36//31 71//31 70//31 35//31
f 21//31 55//31 56//31 20//31
f 50//19 87//19 88//19 68//19
f 4//32 39//32 40//32 5//32
f 19//31 72//31 71//31 36//31
f 22//31 57//31 55//31 21//31
f 5//32 40//32 41//32 6//32
f 23//31 58//31 57//31 22//31
f 6//32 41//32 42//32 7//32
f 24//31 59//31 58//31 23//31
f 8//32 44//32 43//32 9//32
f 25//31 60//31 59//31 24//31
f 60//33 25//33 98//33 100//33
f 9//32 43//32 45//32 10//32
f 27//31 61//31 62//31 26//31
f 44//24 76//24 75//24 62//24
f 10//32 45//32 46//32 11//32
f 19//24 1//24 91//24 92//24
f 74//32 78//32 76//32
f 8//32 74//32 76//32 44//32
f 26//24 73//24 74//24 8//24
f 62//34 75//34 73//34 26//34
f 73//35 77//35 78//35 74//35
f 75//31 77//31 73//31
f 76//36 78//36 77//36 75//36
f 80//32 84//32 82//32
f 38//29 82//29 81//29 56//29
f 20//29 79//29 80//29 2//29
f 2//31 80//31 82//31 38//31
f 88//31 89//31 85//31
f 79//37 83//37 84//37 80//37
f 81//31 83//31 79//31
f 82//38 84//38 83//38 81//38
f 32//19 85//19 86//19 14//19
f 14//32 86//32 87//32 50//32
f 68//33 88//33 85//33 32//33
f 85//39 89//39 90//39 86//39
f 87//40 90//40 89//40 88//40
f 86//32 90//32 87//32
f 91//32 93//32 95//32
f 1//31 54//31 93//31 91//31
f 72//32 19//32 92//32 94//32
f 54//24 72//24 94//24 93//24
f 100//31 98//31 103//31
f 92//36 91//36 95//36 96//36
f 94//31 92//31 96//31
f 93//35 94//35 96//35 95//35
f 42//19 60//19 100//19 99//19
f 7//33 42//33 99//33 97//33
f 25//19 7//19 97//19 98//19
f 104//38 102//38 107//38 108//38
f 98//40 97//40 101//40 103//40
f 99//39 100//39 103//39 101//39
f 97//32 99//32 101//32
f 13//33 48//33 105//33 102//33
f 48//29 66//29 106//29 105//29
f 31//29 13//29 102//29 104//29
f 106//31 104//31 108//31
f 105//37 106//37 108//37 107//37
f 102//32 105//32 107//32
