# Blender v2.79 (sub 0) OBJ File: ''
# www.blender.org
mtllib MLK205.mtl
o MLK205_v2
v -3.708400 0.101600 -0.076200
v -3.708400 0.101600 0.635000
v -3.708400 0.863600 -0.076200
v -3.708400 0.863600 0.635000
v -1.879600 0.101600 -0.076200
v -1.879600 0.863600 -0.076200
v -1.879600 0.101600 0.635000
v -1.879600 0.863600 0.635000
v 0.317500 0.101600 -1.701800
v 0.317500 0.101600 -2.413000
v 0.317500 0.863600 -1.701800
v 0.317500 0.863600 -2.413000
v -5.791200 0.101600 -1.701800
v -5.791200 0.863600 -1.701800
v -5.791200 0.101600 1.701800
v -5.791200 0.863600 1.701800
v 5.791200 0.101600 1.701800
v 5.791200 0.863600 1.701800
v 5.791200 0.101600 -1.701800
v 5.791200 0.863600 -1.701800
v 1.244600 0.101600 -1.701800
v 1.244600 0.863600 -1.701800
v 1.244600 0.101600 -2.413000
v 1.244600 0.863600 -2.413000
v -6.502400 0.863600 -2.413000
v -6.502400 0.863600 2.413000
v 6.502400 0.863600 2.413000
v 6.502400 0.863600 -2.413000
v -0.863600 0.101600 -0.076200
v -0.863600 0.101600 0.635000
v -0.863600 0.863600 -0.076200
v -0.863600 0.863600 0.635000
v 0.965200 0.101600 -0.076200
v 0.965200 0.863600 -0.076200
v 0.965200 0.101600 0.635000
v 0.965200 0.863600 0.635000
v 1.803400 0.101600 -0.076200
v 1.803400 0.101600 0.635000
v 1.803400 0.863600 -0.076200
v 1.803400 0.863600 0.635000
v 3.632200 0.101600 -0.076200
v 3.632200 0.863600 -0.076200
v 3.632200 0.101600 0.635000
v 3.632200 0.863600 0.635000
v -6.502400 0.000000 -2.413000
v -6.502400 -0.000000 2.413000
v 6.502400 0.000000 -2.413000
v 6.502400 -0.000000 2.413000
vn -1.0000 0.0000 0.0000
vn 0.0000 0.0000 -1.0000
vn 1.0000 -0.0000 0.0000
vn 0.0000 -0.0000 1.0000
vn 0.0000 1.0000 0.0000
vn 0.0000 -1.0000 -0.0000
usemtl None
s off
f 1//1 2//1 3//1
f 3//1 2//1 4//1
f 5//2 1//2 6//2
f 6//2 1//2 3//2
f 7//3 5//3 8//3
f 8//3 5//3 6//3
f 2//4 7//4 4//4
f 4//4 7//4 8//4
f 8//5 6//5 4//5
f 4//5 6//5 3//5
f 9//3 10//3 11//3
f 11//3 10//3 12//3
f 13//4 9//4 14//4
f 14//4 9//4 11//4
f 15//3 13//3 16//3
f 16//3 13//3 14//3
f 17//2 15//2 18//2
f 18//2 15//2 16//2
f 19//1 17//1 20//1
f 20//1 17//1 18//1
f 21//4 19//4 22//4
f 22//4 19//4 20//4
f 23//1 21//1 24//1
f 24//1 21//1 22//1
f 12//5 25//5 14//5
f 14//5 25//5 26//5
f 14//5 26//5 16//5
f 16//5 26//5 18//5
f 18//5 26//5 27//5
f 18//5 27//5 28//5
f 18//5 28//5 20//5
f 20//5 28//5 24//5
f 20//5 24//5 22//5
f 14//5 11//5 12//5
f 29//1 30//1 31//1
f 31//1 30//1 32//1
f 33//2 29//2 34//2
f 34//2 29//2 31//2
f 35//3 33//3 36//3
f 36//3 33//3 34//3
f 30//4 35//4 32//4
f 32//4 35//4 36//4
f 36//5 34//5 32//5
f 32//5 34//5 31//5
f 37//1 38//1 39//1
f 39//1 38//1 40//1
f 41//2 37//2 42//2
f 42//2 37//2 39//2
f 43//3 41//3 44//3
f 44//3 41//3 42//3
f 38//4 43//4 40//4
f 40//4 43//4 44//4
f 44//5 42//5 40//5
f 40//5 42//5 39//5
f 45//1 46//1 25//1
f 25//1 46//1 26//1
f 45//2 10//2 47//2
f 47//2 10//2 23//2
f 47//2 23//2 28//2
f 28//2 23//2 24//2
f 45//2 25//2 10//2
f 10//2 25//2 12//2
f 48//3 47//3 27//3
f 27//3 47//3 28//3
f 46//4 48//4 26//4
f 26//4 48//4 27//4
f 7//5 2//5 15//5
f 15//5 2//5 1//5
f 15//5 1//5 13//5
f 13//5 1//5 5//5
f 13//5 5//5 9//5
f 9//5 5//5 29//5
f 9//5 29//5 33//5
f 5//5 7//5 29//5
f 29//5 7//5 30//5
f 30//5 7//5 15//5
f 30//5 15//5 17//5
f 23//5 9//5 21//5
f 21//5 9//5 33//5
f 21//5 33//5 37//5
f 37//5 33//5 35//5
f 37//5 35//5 38//5
f 38//5 35//5 17//5
f 38//5 17//5 43//5
f 43//5 17//5 41//5
f 41//5 17//5 19//5
f 41//5 19//5 21//5
f 23//5 10//5 9//5
f 35//5 30//5 17//5
f 37//5 41//5 21//5
f 48//6 46//6 47//6
f 47//6 46//6 45//6
